<svg xmlns="http://www.w3.org/2000/svg" xmlns:xlink="http://www.w3.org/1999/xlink" viewBox="0,0,256,256" width="50px" height="50px" fill-rule="nonzero"><g fill="#ffffff" fill-rule="nonzero" stroke="none" stroke-width="1" stroke-linecap="butt" stroke-linejoin="miter" stroke-miterlimit="10" stroke-dasharray="" stroke-dashoffset="0" font-family="none" font-weight="none" font-size="none" text-anchor="none" style="mix-blend-mode: normal"><g transform="scale(5.12,5.12)"><path d="M24.99805,6.00195c-0.35375,0 -0.70564,0.12033 -0.99414,0.36133l-16.82422,14.05664c-0.212,0.178 -0.24145,0.49308 -0.06445,0.70508c0.179,0.212 0.49308,0.2405 0.70508,0.0625l2.17969,-1.82031v16.63281c0,1.657 1.343,3 3,3h24c1.657,0 3,-1.343 3,-3v-16.63281l2.17969,1.82227c0.093,0.078 0.20731,0.11523 0.32031,0.11523c0.143,0 0.28577,-0.05973 0.38477,-0.17773c0.177,-0.212 0.14755,-0.52808 -0.06445,-0.70508l-2.82031,-2.35547v-7.06641c0,-0.552 -0.448,-1 -1,-1h-1c-0.552,0 -1,0.448 -1,1v4.55859l-11.00586,-9.19531c-0.2885,-0.241 -0.64234,-0.36133 -0.99609,-0.36133zM24.99805,7.00391c0.12825,0 0.25683,0.04336 0.36133,0.13086l13.64063,11.39844v17.4668c0,1.105 -0.895,2 -2,2h-7v-11.33203c0,-0.921 -0.74602,-1.66797 -1.66602,-1.66797h-6.66602c-0.921,0 -1.66797,0.74697 -1.66797,1.66797v11.33203h-7c-1.105,0 -2,-0.895 -2,-2v-17.46875l13.63867,-11.39648c0.1045,-0.0875 0.23112,-0.13086 0.35938,-0.13086z"></path></g></g></svg>