<svg width="120" height="120" viewBox="0 0 120 120" fill="none" xmlns="http://www.w3.org/2000/svg">
  <!-- Chat bubble background -->
  <path 
    d="M95 20H25C22.2386 20 20 22.2386 20 25V75C20 77.7614 22.2386 80 25 80H45L55 95L65 80H95C97.7614 80 100 77.7614 100 75V25C100 22.2386 97.7614 20 95 20Z" 
    fill="#f34611"
  />
  
  <!-- Letter C -->
  <path 
    d="M72 37.5C72 37.5 65 35 58 35C51 35 44 37.5 44 50C44 62.5 51 65 58 65C65 65 72 62.5 72 62.5V55C72 55 67 57.5 62 57.5C57 57.5 54 55 54 50C54 45 57 42.5 62 42.5C67 42.5 72 45 72 45V37.5Z" 
    fill="#000000"
  />
  
  <!-- Dots -->
  <!-- <circle cx="45" cy="50" r="3" fill="#BFEEAA"/>
  <circle cx="60" cy="50" r="3" fill="#BFEEAA"/>
  <circle cx="75" cy="50" r="3" fill="#BFEEAA"/> -->
</svg>
