<svg width="48" height="48" viewBox="0 0 48 48" fill="none" xmlns="http://www.w3.org/2000/svg">
  <path d="M19.2 32.4C19.2 34.2 17.7 35.7 15.9 35.7C14.1 35.7 12.6 34.2 12.6 32.4C12.6 30.6 14.1 29.1 15.9 29.1H19.2V32.4Z" fill="#E01E5A"/>
  <path d="M20.7 32.4C20.7 30.6 22.2 29.1 24 29.1C25.8 29.1 27.3 30.6 27.3 32.4V40.5C27.3 42.3 25.8 43.8 24 43.8C22.2 43.8 20.7 42.3 20.7 40.5V32.4Z" fill="#E01E5A"/>
  <path d="M24 19.2C22.2 19.2 20.7 17.7 20.7 15.9C20.7 14.1 22.2 12.6 24 12.6C25.8 12.6 27.3 14.1 27.3 15.9V19.2H24Z" fill="#36C5F0"/>
  <path d="M24 20.7C25.8 20.7 27.3 22.2 27.3 24C27.3 25.8 25.8 27.3 24 27.3H15.9C14.1 27.3 12.6 25.8 12.6 24C12.6 22.2 14.1 20.7 15.9 20.7H24Z" fill="#36C5F0"/>
  <path d="M35.7 24C35.7 22.2 37.2 20.7 39 20.7C40.8 20.7 42.3 22.2 42.3 24C42.3 25.8 40.8 27.3 39 27.3H35.7V24Z" fill="#2EB67D"/>
  <path d="M34.2 24C34.2 25.8 32.7 27.3 30.9 27.3C29.1 27.3 27.6 25.8 27.6 24V15.9C27.6 14.1 29.1 12.6 30.9 12.6C32.7 12.6 34.2 14.1 34.2 15.9V24Z" fill="#2EB67D"/>
  <path d="M30.9 35.7C32.7 35.7 34.2 37.2 34.2 39C34.2 40.8 32.7 42.3 30.9 42.3C29.1 42.3 27.6 40.8 27.6 39V35.7H30.9Z" fill="#ECB22E"/>
  <path d="M30.9 34.2C29.1 34.2 27.6 32.7 27.6 30.9C27.6 29.1 29.1 27.6 30.9 27.6H39C40.8 27.6 42.3 29.1 42.3 30.9C42.3 32.7 40.8 34.2 39 34.2H30.9Z" fill="#ECB22E"/>
</svg> 